<svg xmlns="http://www.w3.org/2000/svg" width="60" height="80" viewBox="0 0 60 80">
  <defs>
    <filter id="shadow" x="-10%" y="-10%" width="130%" height="140%">
      <feDropShadow dx="1" dy="2" stdDeviation="1.5" flood-color="#00000055"/>
    </filter>
    <linearGradient id="face" x1="0%" y1="0%" x2="100%" y2="100%">
      <stop offset="0%" stop-color="#faf5ed"/>
      <stop offset="50%" stop-color="#f5f0e0"/>
      <stop offset="100%" stop-color="#e8e0d0"/>
    </linearGradient>
    <linearGradient id="border" x1="0%" y1="0%" x2="100%" y2="100%">
      <stop offset="0%" stop-color="#ddd0bc"/>
      <stop offset="100%" stop-color="#b8a080"/>
    </linearGradient>
  </defs>
  <rect x="2" y="3" width="58" height="77" rx="5" fill="#00000033" filter="url(#shadow)"/>
  <rect x="1" y="1" width="58" height="78" rx="5" fill="url(#face)" stroke="url(#border)" stroke-width="1.5"/>
  <rect x="3" y="2" width="52" height="4" rx="2" fill="rgba(255,255,255,0.4)"/>
  <rect x="6" y="10" width="48" height="3" rx="1" fill="#2980b9" opacity="0.85"/>
  <text x="30" y="20" text-anchor="middle" font-family="Noto Sans TC, sans-serif" font-size="14" fill="#2980b9" font-weight="700">條</text>
  <rect x="17.5" y="28" width="7" height="14" rx="2.5" fill="#2980b9"/>
  <line x1="17.5" y1="35.0" x2="24.5" y2="35.0" stroke="#d0e8f0" stroke-width="1.5"/>
  <rect x="26.5" y="28" width="7" height="14" rx="2.5" fill="#2980b9"/>
  <line x1="26.5" y1="35.0" x2="33.5" y2="35.0" stroke="#d0e8f0" stroke-width="1.5"/>
  <rect x="35.5" y="28" width="7" height="14" rx="2.5" fill="#2980b9"/>
  <line x1="35.5" y1="35.0" x2="42.5" y2="35.0" stroke="#d0e8f0" stroke-width="1.5"/>
  <rect x="22.0" y="50" width="7" height="14" rx="2.5" fill="#2980b9"/>
  <line x1="22.0" y1="57.0" x2="29.0" y2="57.0" stroke="#d0e8f0" stroke-width="1.5"/>
  <rect x="31.0" y="50" width="7" height="14" rx="2.5" fill="#2980b9"/>
  <line x1="31.0" y1="57.0" x2="38.0" y2="57.0" stroke="#d0e8f0" stroke-width="1.5"/>
</svg>